<svg width="800" height="500" viewBox="0 0 800 500" fill="none" xmlns="http://www.w3.org/2000/svg">
  <defs>
    <linearGradient id="gradImplant" x1="60" y1="45" x2="720" y2="470" gradientUnits="userSpaceOnUse">
      <stop stop-color="#EAF3FF"/>
      <stop offset="1" stop-color="#F4F7FF"/>
    </linearGradient>
  </defs>
  <rect width="800" height="500" rx="32" fill="url(#gradImplant)"/>
  <rect x="80" y="90" width="640" height="320" rx="26" fill="#F9FBFF"/>
  <path d="M250 360C270 316 298 270 328 245C354 222 376 214 408 214C458 214 507 249 540 296C562 330 590 358 635 372L635 392H240L250 360Z" fill="#D7E5FF"/>
  <path d="M255 360C274 326 300 276 328 252C360 224 394 216 422 220C464 226 504 258 533 305C559 348 583 370 621 381" stroke="#0D1C2F" stroke-width="13" stroke-linecap="round" stroke-linejoin="round"/>
  <path d="M133 354C174 299 234 280 272 283C300 285 332 293 354 316C362 324 373 336 385 345C421 370 470 370 547 357" stroke="#AFC8F8" stroke-width="12" stroke-linecap="round"/>
  <path d="M318 263L441 263C455 263 466 274 466 288V330C466 344 455 355 441 355H318C304 355 293 344 293 330V288C293 274 304 263 318 263Z" fill="#FDFEFE"/>
  <path d="M333 261V212C333 168 366 132 410 132C454 132 487 168 487 212V261" stroke="#D9E8FF" stroke-width="14" stroke-linecap="round"/>
  <path d="M365 131H456" stroke="#D9E8FF" stroke-width="13" stroke-linecap="round"/>
  <path d="M356 197H370V263H356V197Z" fill="#F5D97A"/>
  <path d="M432 197H446V263H432V197Z" fill="#F5D97A"/>
  <path d="M367 177H434" stroke="#F5D97A" stroke-width="8" stroke-linecap="round"/>
  <path d="M384 216H417" stroke="#0D1C2F" stroke-width="10" stroke-linecap="round"/>
  <path d="M383 240H418" stroke="#0D1C2F" stroke-width="10" stroke-linecap="round"/>
  <path d="M399 163V129" stroke="#F5D97A" stroke-width="8" stroke-linecap="round"/>
  <path d="M240 194L195 251" stroke="#0D1C2F" stroke-width="12" stroke-linecap="round"/>
  <path d="M201 251L153 248" stroke="#0D1C2F" stroke-width="12" stroke-linecap="round"/>
  <circle cx="199" cy="200" r="42" fill="#F5D97A"/>
  <path d="M178 200H220" stroke="#0D1C2F" stroke-width="10" stroke-linecap="round"/>
  <path d="M199 179V221" stroke="#0D1C2F" stroke-width="10" stroke-linecap="round"/>
  <path d="M574 204L624 247" stroke="#0D1C2F" stroke-width="12" stroke-linecap="round"/>
  <path d="M624 247L661 246" stroke="#0D1C2F" stroke-width="12" stroke-linecap="round"/>
  <circle cx="597" cy="175" r="38" fill="#E9F1FF"/>
  <path d="M575 175H619" stroke="#0D1C2F" stroke-width="10" stroke-linecap="round"/>
  <path d="M597 154V196" stroke="#0D1C2F" stroke-width="10" stroke-linecap="round"/>
</svg>
